<svg xmlns="http://www.w3.org/2000/svg" viewBox="0 0 16 16"><defs><style>.a{fill:#319F9E;}</style></defs><title>ic_component_template</title><path class="a" d="M15,3V13H1V3H15m1-1H0V14H16V2Z"/><polygon class="a" points="3 4 2 4 2 5 3 5 3 4 3 4"/><polygon class="a" points="5 4 4 4 4 5 5 5 5 4 5 4"/><polygon class="a" points="7 4 6 4 6 5 7 5 7 4 7 4"/><polygon class="a" points="9 4 8 4 8 5 9 5 9 4 9 4"/><polygon class="a" points="3 6 2 6 2 7 3 7 3 6 3 6"/><polygon class="a" points="9 6 8 6 8 7 9 7 9 6 9 6"/><polygon class="a" points="3 8 2 8 2 9 3 9 3 8 3 8"/><polygon class="a" points="9 8 8 8 8 9 9 9 9 8 9 8"/><polygon class="a" points="3 10 2 10 2 11 3 11 3 10 3 10"/><polygon class="a" points="5 10 4 10 4 11 5 11 5 10 5 10"/><polygon class="a" points="7 10 6 10 6 11 7 11 7 10 7 10"/><polygon class="a" points="9 10 8 10 8 11 9 11 9 10 9 10"/><path class="a" d="M13,5v5H11V5h2m1-1H10v7h4V4Z"/></svg>